<mxfile host="65bd71144e" compressed="false">
    <diagram name="Page-1" id="0">
        <mxGraphModel dx="784" dy="430" grid="1" gridSize="10" guides="1" tooltips="1" connect="1" arrows="1" fold="1" page="1" pageScale="1" pageWidth="827" pageHeight="1169" math="0" shadow="0">
            <root>
                <mxCell id="0"/>
                <mxCell id="1" parent="0"/>
                <mxCell id="style_class_node" value="Style" style="swimlane;fontStyle=1;align=center;verticalAlign=middle;childLayout=stackLayout;horizontal=1;startSize=30.0;horizontalStack=0;resizeParent=1;resizeLast=0;collapsible=1;marginBottom=0;rounded=0;shadow=0;strokeWidth=1;fontFamily=Courier New;fillColor=none;" parent="1" vertex="1" collapsed="1">
                    <mxGeometry width="70" height="30" as="geometry">
                        <mxRectangle width="200" height="2458" as="alternateBounds"/>
                    </mxGeometry>
                </mxCell>
                <mxCell id="style_class_node_property_whiteSpace" value="whiteSpace" style="text;strokeColor=none;fillColor=none;align=left;verticalAlign=middle;spacingLeft=4;spacingRight=4;overflow=hidden;rotatable=0;points=[[0,0.5],[1,0.5]];portConstraint=eastwest;" parent="style_class_node" vertex="1">
                    <mxGeometry y="30" width="70" height="20" as="geometry"/>
                </mxCell>
                <mxCell id="style_class_node_property_verticalLabelPosition" value="verticalLabelPosition" style="text;strokeColor=none;fillColor=none;align=left;verticalAlign=middle;spacingLeft=4;spacingRight=4;overflow=hidden;rotatable=0;points=[[0,0.5],[1,0.5]];portConstraint=eastwest;" parent="style_class_node" vertex="1">
                    <mxGeometry y="50" width="70" height="20" as="geometry"/>
                </mxCell>
                <mxCell id="style_class_node_property_verticalAlign" value="verticalAlign" style="text;strokeColor=none;fillColor=none;align=left;verticalAlign=middle;spacingLeft=4;spacingRight=4;overflow=hidden;rotatable=0;points=[[0,0.5],[1,0.5]];portConstraint=eastwest;" parent="style_class_node" vertex="1">
                    <mxGeometry y="70" width="70" height="20" as="geometry"/>
                </mxCell>
                <mxCell id="style_class_node_property_textOpacity" value="textOpacity" style="text;strokeColor=none;fillColor=none;align=left;verticalAlign=middle;spacingLeft=4;spacingRight=4;overflow=hidden;rotatable=0;points=[[0,0.5],[1,0.5]];portConstraint=eastwest;" parent="style_class_node" vertex="1">
                    <mxGeometry y="90" width="70" height="20" as="geometry"/>
                </mxCell>
                <mxCell id="style_class_node_property_textDirection" value="textDirection" style="text;strokeColor=none;fillColor=none;align=left;verticalAlign=middle;spacingLeft=4;spacingRight=4;overflow=hidden;rotatable=0;points=[[0,0.5],[1,0.5]];portConstraint=eastwest;" parent="style_class_node" vertex="1">
                    <mxGeometry y="110" width="70" height="20" as="geometry"/>
                </mxCell>
                <mxCell id="style_class_node_property_targetPortConstraint" value="targetPortConstraint" style="text;strokeColor=none;fillColor=none;align=left;verticalAlign=middle;spacingLeft=4;spacingRight=4;overflow=hidden;rotatable=0;points=[[0,0.5],[1,0.5]];portConstraint=eastwest;" parent="style_class_node" vertex="1">
                    <mxGeometry y="130" width="70" height="20" as="geometry"/>
                </mxCell>
                <mxCell id="style_class_node_property_targetPort" value="targetPort" style="text;strokeColor=none;fillColor=none;align=left;verticalAlign=middle;spacingLeft=4;spacingRight=4;overflow=hidden;rotatable=0;points=[[0,0.5],[1,0.5]];portConstraint=eastwest;" parent="style_class_node" vertex="1">
                    <mxGeometry y="150" width="70" height="20" as="geometry"/>
                </mxCell>
                <mxCell id="style_class_node_property_targetPerimeterSpacing" value="targetPerimeterSpacing" style="text;strokeColor=none;fillColor=none;align=left;verticalAlign=middle;spacingLeft=4;spacingRight=4;overflow=hidden;rotatable=0;points=[[0,0.5],[1,0.5]];portConstraint=eastwest;" parent="style_class_node" vertex="1">
                    <mxGeometry y="170" width="70" height="20" as="geometry"/>
                </mxCell>
                <mxCell id="style_class_node_property_targetJettySize" value="targetJettySize" style="text;strokeColor=none;fillColor=none;align=left;verticalAlign=middle;spacingLeft=4;spacingRight=4;overflow=hidden;rotatable=0;points=[[0,0.5],[1,0.5]];portConstraint=eastwest;" parent="style_class_node" vertex="1">
                    <mxGeometry y="190" width="70" height="20" as="geometry"/>
                </mxCell>
                <mxCell id="style_class_node_property_swimlaneLine" value="swimlaneLine" style="text;strokeColor=none;fillColor=none;align=left;verticalAlign=middle;spacingLeft=4;spacingRight=4;overflow=hidden;rotatable=0;points=[[0,0.5],[1,0.5]];portConstraint=eastwest;" parent="style_class_node" vertex="1">
                    <mxGeometry y="210" width="70" height="20" as="geometry"/>
                </mxCell>
                <mxCell id="style_class_node_property_swimlaneFillColor" value="swimlaneFillColor" style="text;strokeColor=none;fillColor=none;align=left;verticalAlign=middle;spacingLeft=4;spacingRight=4;overflow=hidden;rotatable=0;points=[[0,0.5],[1,0.5]];portConstraint=eastwest;" parent="style_class_node" vertex="1">
                    <mxGeometry y="230" width="70" height="20" as="geometry"/>
                </mxCell>
                <mxCell id="style_class_node_property_style_table" value="style_table" style="text;strokeColor=none;fillColor=none;align=left;verticalAlign=middle;spacingLeft=4;spacingRight=4;overflow=hidden;rotatable=0;points=[[0,0.5],[1,0.5]];portConstraint=eastwest;" parent="style_class_node" vertex="1">
                    <mxGeometry y="250" width="70" height="20" as="geometry"/>
                </mxCell>
                <mxCell id="style_class_node_property_strokeWidth" value="strokeWidth" style="text;strokeColor=none;fillColor=none;align=left;verticalAlign=middle;spacingLeft=4;spacingRight=4;overflow=hidden;rotatable=0;points=[[0,0.5],[1,0.5]];portConstraint=eastwest;" parent="style_class_node" vertex="1">
                    <mxGeometry y="270" width="70" height="20" as="geometry"/>
                </mxCell>
                <mxCell id="style_class_node_property_strokeOpacity" value="strokeOpacity" style="text;strokeColor=none;fillColor=none;align=left;verticalAlign=middle;spacingLeft=4;spacingRight=4;overflow=hidden;rotatable=0;points=[[0,0.5],[1,0.5]];portConstraint=eastwest;" parent="style_class_node" vertex="1">
                    <mxGeometry y="290" width="70" height="20" as="geometry"/>
                </mxCell>
                <mxCell id="style_class_node_property_strokeColor" value="strokeColor" style="text;strokeColor=none;fillColor=none;align=left;verticalAlign=middle;spacingLeft=4;spacingRight=4;overflow=hidden;rotatable=0;points=[[0,0.5],[1,0.5]];portConstraint=eastwest;" parent="style_class_node" vertex="1">
                    <mxGeometry y="310" width="70" height="20" as="geometry"/>
                </mxCell>
                <mxCell id="style_class_node_property_startSize" value="startSize" style="text;strokeColor=none;fillColor=none;align=left;verticalAlign=middle;spacingLeft=4;spacingRight=4;overflow=hidden;rotatable=0;points=[[0,0.5],[1,0.5]];portConstraint=eastwest;" parent="style_class_node" vertex="1">
                    <mxGeometry y="330" width="70" height="20" as="geometry"/>
                </mxCell>
                <mxCell id="style_class_node_property_startFill" value="startFill" style="text;strokeColor=none;fillColor=none;align=left;verticalAlign=middle;spacingLeft=4;spacingRight=4;overflow=hidden;rotatable=0;points=[[0,0.5],[1,0.5]];portConstraint=eastwest;" parent="style_class_node" vertex="1">
                    <mxGeometry y="350" width="70" height="20" as="geometry"/>
                </mxCell>
                <mxCell id="style_class_node_property_startArrow" value="startArrow" style="text;strokeColor=none;fillColor=none;align=left;verticalAlign=middle;spacingLeft=4;spacingRight=4;overflow=hidden;rotatable=0;points=[[0,0.5],[1,0.5]];portConstraint=eastwest;" parent="style_class_node" vertex="1">
                    <mxGeometry y="370" width="70" height="20" as="geometry"/>
                </mxCell>
                <mxCell id="style_class_node_property_spacingTop" value="spacingTop" style="text;strokeColor=none;fillColor=none;align=left;verticalAlign=middle;spacingLeft=4;spacingRight=4;overflow=hidden;rotatable=0;points=[[0,0.5],[1,0.5]];portConstraint=eastwest;" parent="style_class_node" vertex="1">
                    <mxGeometry y="390" width="70" height="20" as="geometry"/>
                </mxCell>
                <mxCell id="style_class_node_property_spacingRight" value="spacingRight" style="text;strokeColor=none;fillColor=none;align=left;verticalAlign=middle;spacingLeft=4;spacingRight=4;overflow=hidden;rotatable=0;points=[[0,0.5],[1,0.5]];portConstraint=eastwest;" parent="style_class_node" vertex="1">
                    <mxGeometry y="410" width="70" height="20" as="geometry"/>
                </mxCell>
                <mxCell id="style_class_node_property_spacingLeft" value="spacingLeft" style="text;strokeColor=none;fillColor=none;align=left;verticalAlign=middle;spacingLeft=4;spacingRight=4;overflow=hidden;rotatable=0;points=[[0,0.5],[1,0.5]];portConstraint=eastwest;" parent="style_class_node" vertex="1">
                    <mxGeometry y="430" width="70" height="20" as="geometry"/>
                </mxCell>
                <mxCell id="style_class_node_property_spacingBottom" value="spacingBottom" style="text;strokeColor=none;fillColor=none;align=left;verticalAlign=middle;spacingLeft=4;spacingRight=4;overflow=hidden;rotatable=0;points=[[0,0.5],[1,0.5]];portConstraint=eastwest;" parent="style_class_node" vertex="1">
                    <mxGeometry y="450" width="70" height="20" as="geometry"/>
                </mxCell>
                <mxCell id="style_class_node_property_spacing" value="spacing" style="text;strokeColor=none;fillColor=none;align=left;verticalAlign=middle;spacingLeft=4;spacingRight=4;overflow=hidden;rotatable=0;points=[[0,0.5],[1,0.5]];portConstraint=eastwest;" parent="style_class_node" vertex="1">
                    <mxGeometry y="470" width="70" height="20" as="geometry"/>
                </mxCell>
                <mxCell id="style_class_node_property_sourcePortConstraint" value="sourcePortConstraint" style="text;strokeColor=none;fillColor=none;align=left;verticalAlign=middle;spacingLeft=4;spacingRight=4;overflow=hidden;rotatable=0;points=[[0,0.5],[1,0.5]];portConstraint=eastwest;" parent="style_class_node" vertex="1">
                    <mxGeometry y="490" width="70" height="20" as="geometry"/>
                </mxCell>
                <mxCell id="style_class_node_property_sourcePort" value="sourcePort" style="text;strokeColor=none;fillColor=none;align=left;verticalAlign=middle;spacingLeft=4;spacingRight=4;overflow=hidden;rotatable=0;points=[[0,0.5],[1,0.5]];portConstraint=eastwest;" parent="style_class_node" vertex="1">
                    <mxGeometry y="510" width="70" height="20" as="geometry"/>
                </mxCell>
                <mxCell id="style_class_node_property_sourcePerimeterSpacing" value="sourcePerimeterSpacing" style="text;strokeColor=none;fillColor=none;align=left;verticalAlign=middle;spacingLeft=4;spacingRight=4;overflow=hidden;rotatable=0;points=[[0,0.5],[1,0.5]];portConstraint=eastwest;" parent="style_class_node" vertex="1">
                    <mxGeometry y="530" width="70" height="20" as="geometry"/>
                </mxCell>
                <mxCell id="style_class_node_property_sourceJettySize" value="sourceJettySize" style="text;strokeColor=none;fillColor=none;align=left;verticalAlign=middle;spacingLeft=4;spacingRight=4;overflow=hidden;rotatable=0;points=[[0,0.5],[1,0.5]];portConstraint=eastwest;" parent="style_class_node" vertex="1">
                    <mxGeometry y="550" width="70" height="20" as="geometry"/>
                </mxCell>
                <mxCell id="style_class_node_property_shape" value="shape" style="text;strokeColor=none;fillColor=none;align=left;verticalAlign=middle;spacingLeft=4;spacingRight=4;overflow=hidden;rotatable=0;points=[[0,0.5],[1,0.5]];portConstraint=eastwest;" parent="style_class_node" vertex="1">
                    <mxGeometry y="570" width="70" height="20" as="geometry"/>
                </mxCell>
                <mxCell id="style_class_node_property_shadow" value="shadow" style="text;strokeColor=none;fillColor=none;align=left;verticalAlign=middle;spacingLeft=4;spacingRight=4;overflow=hidden;rotatable=0;points=[[0,0.5],[1,0.5]];portConstraint=eastwest;" parent="style_class_node" vertex="1">
                    <mxGeometry y="590" width="70" height="20" as="geometry"/>
                </mxCell>
                <mxCell id="style_class_node_property_separatorColor" value="separatorColor" style="text;strokeColor=none;fillColor=none;align=left;verticalAlign=middle;spacingLeft=4;spacingRight=4;overflow=hidden;rotatable=0;points=[[0,0.5],[1,0.5]];portConstraint=eastwest;" parent="style_class_node" vertex="1">
                    <mxGeometry y="610" width="70" height="20" as="geometry"/>
                </mxCell>
                <mxCell id="style_class_node_property_segment" value="segment" style="text;strokeColor=none;fillColor=none;align=left;verticalAlign=middle;spacingLeft=4;spacingRight=4;overflow=hidden;rotatable=0;points=[[0,0.5],[1,0.5]];portConstraint=eastwest;" parent="style_class_node" vertex="1">
                    <mxGeometry y="630" width="70" height="20" as="geometry"/>
                </mxCell>
                <mxCell id="style_class_node_property_routingCenterY" value="routingCenterY" style="text;strokeColor=none;fillColor=none;align=left;verticalAlign=middle;spacingLeft=4;spacingRight=4;overflow=hidden;rotatable=0;points=[[0,0.5],[1,0.5]];portConstraint=eastwest;" parent="style_class_node" vertex="1">
                    <mxGeometry y="650" width="70" height="20" as="geometry"/>
                </mxCell>
                <mxCell id="style_class_node_property_routingCenterX" value="routingCenterX" style="text;strokeColor=none;fillColor=none;align=left;verticalAlign=middle;spacingLeft=4;spacingRight=4;overflow=hidden;rotatable=0;points=[[0,0.5],[1,0.5]];portConstraint=eastwest;" parent="style_class_node" vertex="1">
                    <mxGeometry y="670" width="70" height="20" as="geometry"/>
                </mxCell>
                <mxCell id="style_class_node_property_rounded" value="rounded" style="text;strokeColor=none;fillColor=none;align=left;verticalAlign=middle;spacingLeft=4;spacingRight=4;overflow=hidden;rotatable=0;points=[[0,0.5],[1,0.5]];portConstraint=eastwest;" parent="style_class_node" vertex="1">
                    <mxGeometry y="690" width="70" height="20" as="geometry"/>
                </mxCell>
                <mxCell id="style_class_node_property_rotation" value="rotation" style="text;strokeColor=none;fillColor=none;align=left;verticalAlign=middle;spacingLeft=4;spacingRight=4;overflow=hidden;rotatable=0;points=[[0,0.5],[1,0.5]];portConstraint=eastwest;" parent="style_class_node" vertex="1">
                    <mxGeometry y="710" width="70" height="20" as="geometry"/>
                </mxCell>
                <mxCell id="style_class_node_property_rotatable" value="rotatable" style="text;strokeColor=none;fillColor=none;align=left;verticalAlign=middle;spacingLeft=4;spacingRight=4;overflow=hidden;rotatable=0;points=[[0,0.5],[1,0.5]];portConstraint=eastwest;" parent="style_class_node" vertex="1">
                    <mxGeometry y="730" width="70" height="20" as="geometry"/>
                </mxCell>
                <mxCell id="style_class_node_property_resizeWidth" value="resizeWidth" style="text;strokeColor=none;fillColor=none;align=left;verticalAlign=middle;spacingLeft=4;spacingRight=4;overflow=hidden;rotatable=0;points=[[0,0.5],[1,0.5]];portConstraint=eastwest;" parent="style_class_node" vertex="1">
                    <mxGeometry y="750" width="70" height="20" as="geometry"/>
                </mxCell>
                <mxCell id="style_class_node_property_resizeHeight" value="resizeHeight" style="text;strokeColor=none;fillColor=none;align=left;verticalAlign=middle;spacingLeft=4;spacingRight=4;overflow=hidden;rotatable=0;points=[[0,0.5],[1,0.5]];portConstraint=eastwest;" parent="style_class_node" vertex="1">
                    <mxGeometry y="770" width="70" height="20" as="geometry"/>
                </mxCell>
                <mxCell id="style_class_node_property_resizable" value="resizable" style="text;strokeColor=none;fillColor=none;align=left;verticalAlign=middle;spacingLeft=4;spacingRight=4;overflow=hidden;rotatable=0;points=[[0,0.5],[1,0.5]];portConstraint=eastwest;" parent="style_class_node" vertex="1">
                    <mxGeometry y="790" width="70" height="20" as="geometry"/>
                </mxCell>
                <mxCell id="style_class_node_property_portConstraintRotation" value="portConstraintRotation" style="text;strokeColor=none;fillColor=none;align=left;verticalAlign=middle;spacingLeft=4;spacingRight=4;overflow=hidden;rotatable=0;points=[[0,0.5],[1,0.5]];portConstraint=eastwest;" parent="style_class_node" vertex="1">
                    <mxGeometry y="810" width="70" height="20" as="geometry"/>
                </mxCell>
                <mxCell id="style_class_node_property_portConstraint" value="portConstraint" style="text;strokeColor=none;fillColor=none;align=left;verticalAlign=middle;spacingLeft=4;spacingRight=4;overflow=hidden;rotatable=0;points=[[0,0.5],[1,0.5]];portConstraint=eastwest;" parent="style_class_node" vertex="1">
                    <mxGeometry y="830" width="70" height="20" as="geometry"/>
                </mxCell>
                <mxCell id="style_class_node_property_pointerEvents" value="pointerEvents" style="text;strokeColor=none;fillColor=none;align=left;verticalAlign=middle;spacingLeft=4;spacingRight=4;overflow=hidden;rotatable=0;points=[[0,0.5],[1,0.5]];portConstraint=eastwest;" parent="style_class_node" vertex="1">
                    <mxGeometry y="850" width="70" height="20" as="geometry"/>
                </mxCell>
                <mxCell id="style_class_node_property_perimeterSpacing" value="perimeterSpacing" style="text;strokeColor=none;fillColor=none;align=left;verticalAlign=middle;spacingLeft=4;spacingRight=4;overflow=hidden;rotatable=0;points=[[0,0.5],[1,0.5]];portConstraint=eastwest;" parent="style_class_node" vertex="1">
                    <mxGeometry y="870" width="70" height="20" as="geometry"/>
                </mxCell>
                <mxCell id="style_class_node_property_perimeter" value="perimeter" style="text;strokeColor=none;fillColor=none;align=left;verticalAlign=middle;spacingLeft=4;spacingRight=4;overflow=hidden;rotatable=0;points=[[0,0.5],[1,0.5]];portConstraint=eastwest;" parent="style_class_node" vertex="1">
                    <mxGeometry y="890" width="70" height="20" as="geometry"/>
                </mxCell>
                <mxCell id="style_class_node_property_overflow" value="overflow" style="text;strokeColor=none;fillColor=none;align=left;verticalAlign=middle;spacingLeft=4;spacingRight=4;overflow=hidden;rotatable=0;points=[[0,0.5],[1,0.5]];portConstraint=eastwest;" parent="style_class_node" vertex="1">
                    <mxGeometry y="910" width="70" height="20" as="geometry"/>
                </mxCell>
                <mxCell id="style_class_node_property_orthogonalLoop" value="orthogonalLoop" style="text;strokeColor=none;fillColor=none;align=left;verticalAlign=middle;spacingLeft=4;spacingRight=4;overflow=hidden;rotatable=0;points=[[0,0.5],[1,0.5]];portConstraint=eastwest;" parent="style_class_node" vertex="1">
                    <mxGeometry y="930" width="70" height="20" as="geometry"/>
                </mxCell>
                <mxCell id="style_class_node_property_orthogonal" value="orthogonal" style="text;strokeColor=none;fillColor=none;align=left;verticalAlign=middle;spacingLeft=4;spacingRight=4;overflow=hidden;rotatable=0;points=[[0,0.5],[1,0.5]];portConstraint=eastwest;" parent="style_class_node" vertex="1">
                    <mxGeometry y="950" width="70" height="20" as="geometry"/>
                </mxCell>
                <mxCell id="style_class_node_property_opacity" value="opacity" style="text;strokeColor=none;fillColor=none;align=left;verticalAlign=middle;spacingLeft=4;spacingRight=4;overflow=hidden;rotatable=0;points=[[0,0.5],[1,0.5]];portConstraint=eastwest;" parent="style_class_node" vertex="1">
                    <mxGeometry y="970" width="70" height="20" as="geometry"/>
                </mxCell>
                <mxCell id="style_class_node_property_noLabel" value="noLabel" style="text;strokeColor=none;fillColor=none;align=left;verticalAlign=middle;spacingLeft=4;spacingRight=4;overflow=hidden;rotatable=0;points=[[0,0.5],[1,0.5]];portConstraint=eastwest;" parent="style_class_node" vertex="1">
                    <mxGeometry y="990" width="70" height="20" as="geometry"/>
                </mxCell>
                <mxCell id="style_class_node_property_noEdgeStyle" value="noEdgeStyle" style="text;strokeColor=none;fillColor=none;align=left;verticalAlign=middle;spacingLeft=4;spacingRight=4;overflow=hidden;rotatable=0;points=[[0,0.5],[1,0.5]];portConstraint=eastwest;" parent="style_class_node" vertex="1">
                    <mxGeometry y="1010" width="70" height="20" as="geometry"/>
                </mxCell>
                <mxCell id="style_class_node_property_movable" value="movable" style="text;strokeColor=none;fillColor=none;align=left;verticalAlign=middle;spacingLeft=4;spacingRight=4;overflow=hidden;rotatable=0;points=[[0,0.5],[1,0.5]];portConstraint=eastwest;" parent="style_class_node" vertex="1">
                    <mxGeometry y="1030" width="70" height="20" as="geometry"/>
                </mxCell>
                <mxCell id="style_class_node_property_margin" value="margin" style="text;strokeColor=none;fillColor=none;align=left;verticalAlign=middle;spacingLeft=4;spacingRight=4;overflow=hidden;rotatable=0;points=[[0,0.5],[1,0.5]];portConstraint=eastwest;" parent="style_class_node" vertex="1">
                    <mxGeometry y="1050" width="70" height="20" as="geometry"/>
                </mxCell>
                <mxCell id="style_class_node_property_loopStyle" value="loopStyle" style="text;strokeColor=none;fillColor=none;align=left;verticalAlign=middle;spacingLeft=4;spacingRight=4;overflow=hidden;rotatable=0;points=[[0,0.5],[1,0.5]];portConstraint=eastwest;" parent="style_class_node" vertex="1">
                    <mxGeometry y="1070" width="70" height="20" as="geometry"/>
                </mxCell>
                <mxCell id="style_class_node_property_labelWidth" value="labelWidth" style="text;strokeColor=none;fillColor=none;align=left;verticalAlign=middle;spacingLeft=4;spacingRight=4;overflow=hidden;rotatable=0;points=[[0,0.5],[1,0.5]];portConstraint=eastwest;" parent="style_class_node" vertex="1">
                    <mxGeometry y="1090" width="70" height="20" as="geometry"/>
                </mxCell>
                <mxCell id="style_class_node_property_labelPosition" value="labelPosition" style="text;strokeColor=none;fillColor=none;align=left;verticalAlign=middle;spacingLeft=4;spacingRight=4;overflow=hidden;rotatable=0;points=[[0,0.5],[1,0.5]];portConstraint=eastwest;" parent="style_class_node" vertex="1">
                    <mxGeometry y="1110" width="70" height="20" as="geometry"/>
                </mxCell>
                <mxCell id="style_class_node_property_labelPadding" value="labelPadding" style="text;strokeColor=none;fillColor=none;align=left;verticalAlign=middle;spacingLeft=4;spacingRight=4;overflow=hidden;rotatable=0;points=[[0,0.5],[1,0.5]];portConstraint=eastwest;" parent="style_class_node" vertex="1">
                    <mxGeometry y="1130" width="70" height="20" as="geometry"/>
                </mxCell>
                <mxCell id="style_class_node_property_labelBorderColor" value="labelBorderColor" style="text;strokeColor=none;fillColor=none;align=left;verticalAlign=middle;spacingLeft=4;spacingRight=4;overflow=hidden;rotatable=0;points=[[0,0.5],[1,0.5]];portConstraint=eastwest;" parent="style_class_node" vertex="1">
                    <mxGeometry y="1150" width="70" height="20" as="geometry"/>
                </mxCell>
                <mxCell id="style_class_node_property_labelBackgroundColor" value="labelBackgroundColor" style="text;strokeColor=none;fillColor=none;align=left;verticalAlign=middle;spacingLeft=4;spacingRight=4;overflow=hidden;rotatable=0;points=[[0,0.5],[1,0.5]];portConstraint=eastwest;" parent="style_class_node" vertex="1">
                    <mxGeometry y="1170" width="70" height="20" as="geometry"/>
                </mxCell>
                <mxCell id="style_class_node_property_jettySize" value="jettySize" style="text;strokeColor=none;fillColor=none;align=left;verticalAlign=middle;spacingLeft=4;spacingRight=4;overflow=hidden;rotatable=0;points=[[0,0.5],[1,0.5]];portConstraint=eastwest;" parent="style_class_node" vertex="1">
                    <mxGeometry y="1190" width="70" height="20" as="geometry"/>
                </mxCell>
                <mxCell id="style_class_node_property_indicatorWidth" value="indicatorWidth" style="text;strokeColor=none;fillColor=none;align=left;verticalAlign=middle;spacingLeft=4;spacingRight=4;overflow=hidden;rotatable=0;points=[[0,0.5],[1,0.5]];portConstraint=eastwest;" parent="style_class_node" vertex="1">
                    <mxGeometry y="1210" width="70" height="20" as="geometry"/>
                </mxCell>
                <mxCell id="style_class_node_property_indicatorStrokeColor" value="indicatorStrokeColor" style="text;strokeColor=none;fillColor=none;align=left;verticalAlign=middle;spacingLeft=4;spacingRight=4;overflow=hidden;rotatable=0;points=[[0,0.5],[1,0.5]];portConstraint=eastwest;" parent="style_class_node" vertex="1">
                    <mxGeometry y="1230" width="70" height="20" as="geometry"/>
                </mxCell>
                <mxCell id="style_class_node_property_indicatorSpacing" value="indicatorSpacing" style="text;strokeColor=none;fillColor=none;align=left;verticalAlign=middle;spacingLeft=4;spacingRight=4;overflow=hidden;rotatable=0;points=[[0,0.5],[1,0.5]];portConstraint=eastwest;" parent="style_class_node" vertex="1">
                    <mxGeometry y="1250" width="70" height="20" as="geometry"/>
                </mxCell>
                <mxCell id="style_class_node_property_indicatorShape" value="indicatorShape" style="text;strokeColor=none;fillColor=none;align=left;verticalAlign=middle;spacingLeft=4;spacingRight=4;overflow=hidden;rotatable=0;points=[[0,0.5],[1,0.5]];portConstraint=eastwest;" parent="style_class_node" vertex="1">
                    <mxGeometry y="1270" width="70" height="20" as="geometry"/>
                </mxCell>
                <mxCell id="style_class_node_property_indicatorImage" value="indicatorImage" style="text;strokeColor=none;fillColor=none;align=left;verticalAlign=middle;spacingLeft=4;spacingRight=4;overflow=hidden;rotatable=0;points=[[0,0.5],[1,0.5]];portConstraint=eastwest;" parent="style_class_node" vertex="1">
                    <mxGeometry y="1290" width="70" height="20" as="geometry"/>
                </mxCell>
                <mxCell id="style_class_node_property_indicatorHeight" value="indicatorHeight" style="text;strokeColor=none;fillColor=none;align=left;verticalAlign=middle;spacingLeft=4;spacingRight=4;overflow=hidden;rotatable=0;points=[[0,0.5],[1,0.5]];portConstraint=eastwest;" parent="style_class_node" vertex="1">
                    <mxGeometry y="1310" width="70" height="20" as="geometry"/>
                </mxCell>
                <mxCell id="style_class_node_property_indicatorGradientColor" value="indicatorGradientColor" style="text;strokeColor=none;fillColor=none;align=left;verticalAlign=middle;spacingLeft=4;spacingRight=4;overflow=hidden;rotatable=0;points=[[0,0.5],[1,0.5]];portConstraint=eastwest;" parent="style_class_node" vertex="1">
                    <mxGeometry y="1330" width="70" height="20" as="geometry"/>
                </mxCell>
                <mxCell id="style_class_node_property_indicatorDirection" value="indicatorDirection" style="text;strokeColor=none;fillColor=none;align=left;verticalAlign=middle;spacingLeft=4;spacingRight=4;overflow=hidden;rotatable=0;points=[[0,0.5],[1,0.5]];portConstraint=eastwest;" parent="style_class_node" vertex="1">
                    <mxGeometry y="1350" width="70" height="20" as="geometry"/>
                </mxCell>
                <mxCell id="style_class_node_property_indicatorColor" value="indicatorColor" style="text;strokeColor=none;fillColor=none;align=left;verticalAlign=middle;spacingLeft=4;spacingRight=4;overflow=hidden;rotatable=0;points=[[0,0.5],[1,0.5]];portConstraint=eastwest;" parent="style_class_node" vertex="1">
                    <mxGeometry y="1370" width="70" height="20" as="geometry"/>
                </mxCell>
                <mxCell id="style_class_node_property_imageWidth" value="imageWidth" style="text;strokeColor=none;fillColor=none;align=left;verticalAlign=middle;spacingLeft=4;spacingRight=4;overflow=hidden;rotatable=0;points=[[0,0.5],[1,0.5]];portConstraint=eastwest;" parent="style_class_node" vertex="1">
                    <mxGeometry y="1390" width="70" height="20" as="geometry"/>
                </mxCell>
                <mxCell id="style_class_node_property_imageVerticalAlign" value="imageVerticalAlign" style="text;strokeColor=none;fillColor=none;align=left;verticalAlign=middle;spacingLeft=4;spacingRight=4;overflow=hidden;rotatable=0;points=[[0,0.5],[1,0.5]];portConstraint=eastwest;" parent="style_class_node" vertex="1">
                    <mxGeometry y="1410" width="70" height="20" as="geometry"/>
                </mxCell>
                <mxCell id="style_class_node_property_imageHeight" value="imageHeight" style="text;strokeColor=none;fillColor=none;align=left;verticalAlign=middle;spacingLeft=4;spacingRight=4;overflow=hidden;rotatable=0;points=[[0,0.5],[1,0.5]];portConstraint=eastwest;" parent="style_class_node" vertex="1">
                    <mxGeometry y="1430" width="70" height="20" as="geometry"/>
                </mxCell>
                <mxCell id="style_class_node_property_imageBorder" value="imageBorder" style="text;strokeColor=none;fillColor=none;align=left;verticalAlign=middle;spacingLeft=4;spacingRight=4;overflow=hidden;rotatable=0;points=[[0,0.5],[1,0.5]];portConstraint=eastwest;" parent="style_class_node" vertex="1">
                    <mxGeometry y="1450" width="70" height="20" as="geometry"/>
                </mxCell>
                <mxCell id="style_class_node_property_imageBackground" value="imageBackground" style="text;strokeColor=none;fillColor=none;align=left;verticalAlign=middle;spacingLeft=4;spacingRight=4;overflow=hidden;rotatable=0;points=[[0,0.5],[1,0.5]];portConstraint=eastwest;" parent="style_class_node" vertex="1">
                    <mxGeometry y="1470" width="70" height="20" as="geometry"/>
                </mxCell>
                <mxCell id="style_class_node_property_imageAspect" value="imageAspect" style="text;strokeColor=none;fillColor=none;align=left;verticalAlign=middle;spacingLeft=4;spacingRight=4;overflow=hidden;rotatable=0;points=[[0,0.5],[1,0.5]];portConstraint=eastwest;" parent="style_class_node" vertex="1">
                    <mxGeometry y="1490" width="70" height="20" as="geometry"/>
                </mxCell>
                <mxCell id="style_class_node_property_imageAlign" value="imageAlign" style="text;strokeColor=none;fillColor=none;align=left;verticalAlign=middle;spacingLeft=4;spacingRight=4;overflow=hidden;rotatable=0;points=[[0,0.5],[1,0.5]];portConstraint=eastwest;" parent="style_class_node" vertex="1">
                    <mxGeometry y="1510" width="70" height="20" as="geometry"/>
                </mxCell>
                <mxCell id="style_class_node_property_image" value="image" style="text;strokeColor=none;fillColor=none;align=left;verticalAlign=middle;spacingLeft=4;spacingRight=4;overflow=hidden;rotatable=0;points=[[0,0.5],[1,0.5]];portConstraint=eastwest;" parent="style_class_node" vertex="1">
                    <mxGeometry y="1530" width="70" height="20" as="geometry"/>
                </mxCell>
                <mxCell id="style_class_node_property_horizontal" value="horizontal" style="text;strokeColor=none;fillColor=none;align=left;verticalAlign=middle;spacingLeft=4;spacingRight=4;overflow=hidden;rotatable=0;points=[[0,0.5],[1,0.5]];portConstraint=eastwest;" parent="style_class_node" vertex="1">
                    <mxGeometry y="1550" width="70" height="20" as="geometry"/>
                </mxCell>
                <mxCell id="style_class_node_property_gradientDirection" value="gradientDirection" style="text;strokeColor=none;fillColor=none;align=left;verticalAlign=middle;spacingLeft=4;spacingRight=4;overflow=hidden;rotatable=0;points=[[0,0.5],[1,0.5]];portConstraint=eastwest;" parent="style_class_node" vertex="1">
                    <mxGeometry y="1570" width="70" height="20" as="geometry"/>
                </mxCell>
                <mxCell id="style_class_node_property_gradientColor" value="gradientColor" style="text;strokeColor=none;fillColor=none;align=left;verticalAlign=middle;spacingLeft=4;spacingRight=4;overflow=hidden;rotatable=0;points=[[0,0.5],[1,0.5]];portConstraint=eastwest;" parent="style_class_node" vertex="1">
                    <mxGeometry y="1590" width="70" height="20" as="geometry"/>
                </mxCell>
                <mxCell id="style_class_node_property_glass" value="glass" style="text;strokeColor=none;fillColor=none;align=left;verticalAlign=middle;spacingLeft=4;spacingRight=4;overflow=hidden;rotatable=0;points=[[0,0.5],[1,0.5]];portConstraint=eastwest;" parent="style_class_node" vertex="1">
                    <mxGeometry y="1610" width="70" height="20" as="geometry"/>
                </mxCell>
                <mxCell id="style_class_node_property_fontStyle" value="fontStyle" style="text;strokeColor=none;fillColor=none;align=left;verticalAlign=middle;spacingLeft=4;spacingRight=4;overflow=hidden;rotatable=0;points=[[0,0.5],[1,0.5]];portConstraint=eastwest;" parent="style_class_node" vertex="1">
                    <mxGeometry y="1630" width="70" height="20" as="geometry"/>
                </mxCell>
                <mxCell id="style_class_node_property_fontSize" value="fontSize" style="text;strokeColor=none;fillColor=none;align=left;verticalAlign=middle;spacingLeft=4;spacingRight=4;overflow=hidden;rotatable=0;points=[[0,0.5],[1,0.5]];portConstraint=eastwest;" parent="style_class_node" vertex="1">
                    <mxGeometry y="1650" width="70" height="20" as="geometry"/>
                </mxCell>
                <mxCell id="style_class_node_property_fontFamily" value="fontFamily" style="text;strokeColor=none;fillColor=none;align=left;verticalAlign=middle;spacingLeft=4;spacingRight=4;overflow=hidden;rotatable=0;points=[[0,0.5],[1,0.5]];portConstraint=eastwest;" parent="style_class_node" vertex="1">
                    <mxGeometry y="1670" width="70" height="20" as="geometry"/>
                </mxCell>
                <mxCell id="style_class_node_property_fontColor" value="fontColor" style="text;strokeColor=none;fillColor=none;align=left;verticalAlign=middle;spacingLeft=4;spacingRight=4;overflow=hidden;rotatable=0;points=[[0,0.5],[1,0.5]];portConstraint=eastwest;" parent="style_class_node" vertex="1">
                    <mxGeometry y="1690" width="70" height="20" as="geometry"/>
                </mxCell>
                <mxCell id="style_class_node_property_foldable" value="foldable" style="text;strokeColor=none;fillColor=none;align=left;verticalAlign=middle;spacingLeft=4;spacingRight=4;overflow=hidden;rotatable=0;points=[[0,0.5],[1,0.5]];portConstraint=eastwest;" parent="style_class_node" vertex="1">
                    <mxGeometry y="1710" width="70" height="20" as="geometry"/>
                </mxCell>
                <mxCell id="style_class_node_property_flipV" value="flipV" style="text;strokeColor=none;fillColor=none;align=left;verticalAlign=middle;spacingLeft=4;spacingRight=4;overflow=hidden;rotatable=0;points=[[0,0.5],[1,0.5]];portConstraint=eastwest;" parent="style_class_node" vertex="1">
                    <mxGeometry y="1730" width="70" height="20" as="geometry"/>
                </mxCell>
                <mxCell id="style_class_node_property_flipH" value="flipH" style="text;strokeColor=none;fillColor=none;align=left;verticalAlign=middle;spacingLeft=4;spacingRight=4;overflow=hidden;rotatable=0;points=[[0,0.5],[1,0.5]];portConstraint=eastwest;" parent="style_class_node" vertex="1">
                    <mxGeometry y="1750" width="70" height="20" as="geometry"/>
                </mxCell>
                <mxCell id="style_class_node_property_fixDash" value="fixDash" style="text;strokeColor=none;fillColor=none;align=left;verticalAlign=middle;spacingLeft=4;spacingRight=4;overflow=hidden;rotatable=0;points=[[0,0.5],[1,0.5]];portConstraint=eastwest;" parent="style_class_node" vertex="1">
                    <mxGeometry y="1770" width="70" height="20" as="geometry"/>
                </mxCell>
                <mxCell id="style_class_node_property_fillOpacity" value="fillOpacity" style="text;strokeColor=none;fillColor=none;align=left;verticalAlign=middle;spacingLeft=4;spacingRight=4;overflow=hidden;rotatable=0;points=[[0,0.5],[1,0.5]];portConstraint=eastwest;" parent="style_class_node" vertex="1">
                    <mxGeometry y="1790" width="70" height="20" as="geometry"/>
                </mxCell>
                <mxCell id="style_class_node_property_fillColor" value="fillColor" style="text;strokeColor=none;fillColor=none;align=left;verticalAlign=middle;spacingLeft=4;spacingRight=4;overflow=hidden;rotatable=0;points=[[0,0.5],[1,0.5]];portConstraint=eastwest;" parent="style_class_node" vertex="1">
                    <mxGeometry y="1810" width="70" height="20" as="geometry"/>
                </mxCell>
                <mxCell id="style_class_node_property_exitY" value="exitY" style="text;strokeColor=none;fillColor=none;align=left;verticalAlign=middle;spacingLeft=4;spacingRight=4;overflow=hidden;rotatable=0;points=[[0,0.5],[1,0.5]];portConstraint=eastwest;" parent="style_class_node" vertex="1">
                    <mxGeometry y="1830" width="70" height="20" as="geometry"/>
                </mxCell>
                <mxCell id="style_class_node_property_exitX" value="exitX" style="text;strokeColor=none;fillColor=none;align=left;verticalAlign=middle;spacingLeft=4;spacingRight=4;overflow=hidden;rotatable=0;points=[[0,0.5],[1,0.5]];portConstraint=eastwest;" parent="style_class_node" vertex="1">
                    <mxGeometry y="1850" width="70" height="20" as="geometry"/>
                </mxCell>
                <mxCell id="style_class_node_property_exitPerimeter" value="exitPerimeter" style="text;strokeColor=none;fillColor=none;align=left;verticalAlign=middle;spacingLeft=4;spacingRight=4;overflow=hidden;rotatable=0;points=[[0,0.5],[1,0.5]];portConstraint=eastwest;" parent="style_class_node" vertex="1">
                    <mxGeometry y="1870" width="70" height="20" as="geometry"/>
                </mxCell>
                <mxCell id="style_class_node_property_exitDy" value="exitDy" style="text;strokeColor=none;fillColor=none;align=left;verticalAlign=middle;spacingLeft=4;spacingRight=4;overflow=hidden;rotatable=0;points=[[0,0.5],[1,0.5]];portConstraint=eastwest;" parent="style_class_node" vertex="1">
                    <mxGeometry y="1890" width="70" height="20" as="geometry"/>
                </mxCell>
                <mxCell id="style_class_node_property_exitDx" value="exitDx" style="text;strokeColor=none;fillColor=none;align=left;verticalAlign=middle;spacingLeft=4;spacingRight=4;overflow=hidden;rotatable=0;points=[[0,0.5],[1,0.5]];portConstraint=eastwest;" parent="style_class_node" vertex="1">
                    <mxGeometry y="1910" width="70" height="20" as="geometry"/>
                </mxCell>
                <mxCell id="style_class_node_property_entryY" value="entryY" style="text;strokeColor=none;fillColor=none;align=left;verticalAlign=middle;spacingLeft=4;spacingRight=4;overflow=hidden;rotatable=0;points=[[0,0.5],[1,0.5]];portConstraint=eastwest;" parent="style_class_node" vertex="1">
                    <mxGeometry y="1930" width="70" height="20" as="geometry"/>
                </mxCell>
                <mxCell id="style_class_node_property_entryX" value="entryX" style="text;strokeColor=none;fillColor=none;align=left;verticalAlign=middle;spacingLeft=4;spacingRight=4;overflow=hidden;rotatable=0;points=[[0,0.5],[1,0.5]];portConstraint=eastwest;" parent="style_class_node" vertex="1">
                    <mxGeometry y="1950" width="70" height="20" as="geometry"/>
                </mxCell>
                <mxCell id="style_class_node_property_entryPerimeter" value="entryPerimeter" style="text;strokeColor=none;fillColor=none;align=left;verticalAlign=middle;spacingLeft=4;spacingRight=4;overflow=hidden;rotatable=0;points=[[0,0.5],[1,0.5]];portConstraint=eastwest;" parent="style_class_node" vertex="1">
                    <mxGeometry y="1970" width="70" height="20" as="geometry"/>
                </mxCell>
                <mxCell id="style_class_node_property_entryDy" value="entryDy" style="text;strokeColor=none;fillColor=none;align=left;verticalAlign=middle;spacingLeft=4;spacingRight=4;overflow=hidden;rotatable=0;points=[[0,0.5],[1,0.5]];portConstraint=eastwest;" parent="style_class_node" vertex="1">
                    <mxGeometry y="1990" width="70" height="20" as="geometry"/>
                </mxCell>
                <mxCell id="style_class_node_property_entryDx" value="entryDx" style="text;strokeColor=none;fillColor=none;align=left;verticalAlign=middle;spacingLeft=4;spacingRight=4;overflow=hidden;rotatable=0;points=[[0,0.5],[1,0.5]];portConstraint=eastwest;" parent="style_class_node" vertex="1">
                    <mxGeometry y="2010" width="70" height="20" as="geometry"/>
                </mxCell>
                <mxCell id="style_class_node_property_endSize" value="endSize" style="text;strokeColor=none;fillColor=none;align=left;verticalAlign=middle;spacingLeft=4;spacingRight=4;overflow=hidden;rotatable=0;points=[[0,0.5],[1,0.5]];portConstraint=eastwest;" parent="style_class_node" vertex="1">
                    <mxGeometry y="2030" width="70" height="20" as="geometry"/>
                </mxCell>
                <mxCell id="style_class_node_property_endFill" value="endFill" style="text;strokeColor=none;fillColor=none;align=left;verticalAlign=middle;spacingLeft=4;spacingRight=4;overflow=hidden;rotatable=0;points=[[0,0.5],[1,0.5]];portConstraint=eastwest;" parent="style_class_node" vertex="1">
                    <mxGeometry y="2050" width="70" height="20" as="geometry"/>
                </mxCell>
                <mxCell id="style_class_node_property_endArrow" value="endArrow" style="text;strokeColor=none;fillColor=none;align=left;verticalAlign=middle;spacingLeft=4;spacingRight=4;overflow=hidden;rotatable=0;points=[[0,0.5],[1,0.5]];portConstraint=eastwest;" parent="style_class_node" vertex="1">
                    <mxGeometry y="2070" width="70" height="20" as="geometry"/>
                </mxCell>
                <mxCell id="style_class_node_property_elbow" value="elbow" style="text;strokeColor=none;fillColor=none;align=left;verticalAlign=middle;spacingLeft=4;spacingRight=4;overflow=hidden;rotatable=0;points=[[0,0.5],[1,0.5]];portConstraint=eastwest;" parent="style_class_node" vertex="1">
                    <mxGeometry y="2090" width="70" height="20" as="geometry"/>
                </mxCell>
                <mxCell id="style_class_node_property_editable" value="editable" style="text;strokeColor=none;fillColor=none;align=left;verticalAlign=middle;spacingLeft=4;spacingRight=4;overflow=hidden;rotatable=0;points=[[0,0.5],[1,0.5]];portConstraint=eastwest;" parent="style_class_node" vertex="1">
                    <mxGeometry y="2110" width="70" height="20" as="geometry"/>
                </mxCell>
                <mxCell id="style_class_node_property_edgeStyle" value="edgeStyle" style="text;strokeColor=none;fillColor=none;align=left;verticalAlign=middle;spacingLeft=4;spacingRight=4;overflow=hidden;rotatable=0;points=[[0,0.5],[1,0.5]];portConstraint=eastwest;" parent="style_class_node" vertex="1">
                    <mxGeometry y="2130" width="70" height="20" as="geometry"/>
                </mxCell>
                <mxCell id="style_class_node_property_direction" value="direction" style="text;strokeColor=none;fillColor=none;align=left;verticalAlign=middle;spacingLeft=4;spacingRight=4;overflow=hidden;rotatable=0;points=[[0,0.5],[1,0.5]];portConstraint=eastwest;" parent="style_class_node" vertex="1">
                    <mxGeometry y="2150" width="70" height="20" as="geometry"/>
                </mxCell>
                <mxCell id="style_class_node_property_deletable" value="deletable" style="text;strokeColor=none;fillColor=none;align=left;verticalAlign=middle;spacingLeft=4;spacingRight=4;overflow=hidden;rotatable=0;points=[[0,0.5],[1,0.5]];portConstraint=eastwest;" parent="style_class_node" vertex="1">
                    <mxGeometry y="2170" width="70" height="20" as="geometry"/>
                </mxCell>
                <mxCell id="style_class_node_property_dashed" value="dashed" style="text;strokeColor=none;fillColor=none;align=left;verticalAlign=middle;spacingLeft=4;spacingRight=4;overflow=hidden;rotatable=0;points=[[0,0.5],[1,0.5]];portConstraint=eastwest;" parent="style_class_node" vertex="1">
                    <mxGeometry y="2190" width="70" height="20" as="geometry"/>
                </mxCell>
                <mxCell id="style_class_node_property_dashPattern" value="dashPattern" style="text;strokeColor=none;fillColor=none;align=left;verticalAlign=middle;spacingLeft=4;spacingRight=4;overflow=hidden;rotatable=0;points=[[0,0.5],[1,0.5]];portConstraint=eastwest;" parent="style_class_node" vertex="1">
                    <mxGeometry y="2210" width="70" height="20" as="geometry"/>
                </mxCell>
                <mxCell id="style_class_node_property_curved" value="curved" style="text;strokeColor=none;fillColor=none;align=left;verticalAlign=middle;spacingLeft=4;spacingRight=4;overflow=hidden;rotatable=0;points=[[0,0.5],[1,0.5]];portConstraint=eastwest;" parent="style_class_node" vertex="1">
                    <mxGeometry y="2230" width="70" height="20" as="geometry"/>
                </mxCell>
                <mxCell id="style_class_node_property_cloneable" value="cloneable" style="text;strokeColor=none;fillColor=none;align=left;verticalAlign=middle;spacingLeft=4;spacingRight=4;overflow=hidden;rotatable=0;points=[[0,0.5],[1,0.5]];portConstraint=eastwest;" parent="style_class_node" vertex="1">
                    <mxGeometry y="2250" width="70" height="20" as="geometry"/>
                </mxCell>
                <mxCell id="style_class_node_property_bendable" value="bendable" style="text;strokeColor=none;fillColor=none;align=left;verticalAlign=middle;spacingLeft=4;spacingRight=4;overflow=hidden;rotatable=0;points=[[0,0.5],[1,0.5]];portConstraint=eastwest;" parent="style_class_node" vertex="1">
                    <mxGeometry y="2270" width="70" height="20" as="geometry"/>
                </mxCell>
                <mxCell id="style_class_node_property_backgroundOutline" value="backgroundOutline" style="text;strokeColor=none;fillColor=none;align=left;verticalAlign=middle;spacingLeft=4;spacingRight=4;overflow=hidden;rotatable=0;points=[[0,0.5],[1,0.5]];portConstraint=eastwest;" parent="style_class_node" vertex="1">
                    <mxGeometry y="2290" width="70" height="20" as="geometry"/>
                </mxCell>
                <mxCell id="style_class_node_property_autosize" value="autosize" style="text;strokeColor=none;fillColor=none;align=left;verticalAlign=middle;spacingLeft=4;spacingRight=4;overflow=hidden;rotatable=0;points=[[0,0.5],[1,0.5]];portConstraint=eastwest;" parent="style_class_node" vertex="1">
                    <mxGeometry y="2310" width="70" height="20" as="geometry"/>
                </mxCell>
                <mxCell id="style_class_node_property_aspect" value="aspect" style="text;strokeColor=none;fillColor=none;align=left;verticalAlign=middle;spacingLeft=4;spacingRight=4;overflow=hidden;rotatable=0;points=[[0,0.5],[1,0.5]];portConstraint=eastwest;" parent="style_class_node" vertex="1">
                    <mxGeometry y="2330" width="70" height="20" as="geometry"/>
                </mxCell>
                <mxCell id="style_class_node_property_arcSize" value="arcSize" style="text;strokeColor=none;fillColor=none;align=left;verticalAlign=middle;spacingLeft=4;spacingRight=4;overflow=hidden;rotatable=0;points=[[0,0.5],[1,0.5]];portConstraint=eastwest;" parent="style_class_node" vertex="1">
                    <mxGeometry y="2350" width="70" height="20" as="geometry"/>
                </mxCell>
                <mxCell id="style_class_node_property_anchorPointDirection" value="anchorPointDirection" style="text;strokeColor=none;fillColor=none;align=left;verticalAlign=middle;spacingLeft=4;spacingRight=4;overflow=hidden;rotatable=0;points=[[0,0.5],[1,0.5]];portConstraint=eastwest;" parent="style_class_node" vertex="1">
                    <mxGeometry y="2370" width="70" height="20" as="geometry"/>
                </mxCell>
                <mxCell id="style_class_node_property_align" value="align" style="text;strokeColor=none;fillColor=none;align=left;verticalAlign=middle;spacingLeft=4;spacingRight=4;overflow=hidden;rotatable=0;points=[[0,0.5],[1,0.5]];portConstraint=eastwest;" parent="style_class_node" vertex="1">
                    <mxGeometry y="2390" width="70" height="20" as="geometry"/>
                </mxCell>
                <mxCell id="style_class_node_property_absoluteArcSize" value="absoluteArcSize" style="text;strokeColor=none;fillColor=none;align=left;verticalAlign=middle;spacingLeft=4;spacingRight=4;overflow=hidden;rotatable=0;points=[[0,0.5],[1,0.5]];portConstraint=eastwest;" parent="style_class_node" vertex="1">
                    <mxGeometry y="2410" width="70" height="20" as="geometry"/>
                </mxCell>
                <mxCell id="style_class_node_separator_line_0" value="" style="line;strokeWidth=1;fillColor=none;align=left;verticalAlign=middle;spacingTop=-1;spacingLeft=3;spacingRight=3;rotatable=0;labelPosition=right;points=[];portConstraint=eastwest;" parent="style_class_node" vertex="1">
                    <mxGeometry y="2430" width="70" height="8" as="geometry"/>
                </mxCell>
                <mxCell id="style_class_node_function_from_string" value="from_string(style_string)" style="text;strokeColor=none;fillColor=none;align=left;verticalAlign=middle;spacingLeft=4;spacingRight=4;overflow=hidden;rotatable=0;points=[[0,0.5],[1,0.5]];portConstraint=eastwest;" parent="style_class_node" vertex="1">
                    <mxGeometry y="2438" width="70" height="20" as="geometry"/>
                </mxCell>
                <mxCell id="templates_module_class_node" value="templates_module" style="swimlane;fontStyle=1;align=center;verticalAlign=middle;childLayout=stackLayout;horizontal=1;startSize=30.0;horizontalStack=0;resizeParent=1;resizeLast=0;collapsible=1;marginBottom=0;rounded=0;shadow=0;strokeWidth=1;fontFamily=Courier New;fillColor=none;" parent="1" vertex="1">
                    <mxGeometry x="280" width="200" height="58" as="geometry"/>
                </mxCell>
                <mxCell id="templates_module_class_node_module_diagrams.templates" value="diagrams.templates" style="text;strokeColor=none;fillColor=none;align=left;verticalAlign=middle;spacingLeft=4;spacingRight=4;overflow=hidden;rotatable=0;points=[[0,0.5],[1,0.5]];portConstraint=eastwest;" parent="templates_module_class_node" vertex="1">
                    <mxGeometry y="30" width="200" height="20" as="geometry"/>
                </mxCell>
                <mxCell id="templates_module_class_node_separator_line_0" value="" style="line;strokeWidth=1;fillColor=none;align=left;verticalAlign=middle;spacingTop=-1;spacingLeft=3;spacingRight=3;rotatable=0;labelPosition=right;points=[];portConstraint=eastwest;" parent="templates_module_class_node" vertex="1">
                    <mxGeometry y="50" width="200" height="8" as="geometry"/>
                </mxCell>
                <mxCell id="customelementbase_class_node" value="CustomElementBase" style="swimlane;fontStyle=1;align=center;verticalAlign=middle;childLayout=stackLayout;horizontal=1;startSize=30.0;horizontalStack=0;resizeParent=1;resizeLast=0;collapsible=1;marginBottom=0;rounded=0;shadow=0;strokeWidth=1;fontFamily=Courier New;fillColor=none;" parent="1" vertex="1">
                    <mxGeometry x="560" width="200" height="38" as="geometry"/>
                </mxCell>
                <mxCell id="customelementbase_class_node_separator_line_0" value="" style="line;strokeWidth=1;fillColor=none;align=left;verticalAlign=middle;spacingTop=-1;spacingLeft=3;spacingRight=3;rotatable=0;labelPosition=right;points=[];portConstraint=eastwest;" parent="customelementbase_class_node" vertex="1">
                    <mxGeometry y="30" width="200" height="8" as="geometry"/>
                </mxCell>
                <mxCell id="dclassnode_class_node" value="DClassNode" style="swimlane;fontStyle=1;align=center;verticalAlign=middle;childLayout=stackLayout;horizontal=1;startSize=30.0;horizontalStack=0;resizeParent=1;resizeLast=0;collapsible=1;marginBottom=0;rounded=0;shadow=0;strokeWidth=1;fontFamily=Courier New;fillColor=none;" parent="1" vertex="1">
                    <mxGeometry x="560" y="58" width="200" height="258" as="geometry"/>
                </mxCell>
                <mxCell id="dclassnode_class_node_float_SEPARATOR_LINE_HEIGHT" value="SEPARATOR_LINE_HEIGHT" style="text;strokeColor=none;fillColor=none;align=left;verticalAlign=middle;spacingLeft=4;spacingRight=4;overflow=hidden;rotatable=0;points=[[0,0.5],[1,0.5]];portConstraint=eastwest;" parent="dclassnode_class_node" vertex="1">
                    <mxGeometry y="30" width="200" height="20" as="geometry"/>
                </mxCell>
                <mxCell id="dclassnode_class_node_float_ROW_HEIGHT" value="ROW_HEIGHT" style="text;strokeColor=none;fillColor=none;align=left;verticalAlign=middle;spacingLeft=4;spacingRight=4;overflow=hidden;rotatable=0;points=[[0,0.5],[1,0.5]];portConstraint=eastwest;" parent="dclassnode_class_node" vertex="1">
                    <mxGeometry y="50" width="200" height="20" as="geometry"/>
                </mxCell>
                <mxCell id="dclassnode_class_node_float_CLASS_HEADER_HEIGHT" value="CLASS_HEADER_HEIGHT" style="text;strokeColor=none;fillColor=none;align=left;verticalAlign=middle;spacingLeft=4;spacingRight=4;overflow=hidden;rotatable=0;points=[[0,0.5],[1,0.5]];portConstraint=eastwest;" parent="dclassnode_class_node" vertex="1">
                    <mxGeometry y="70" width="200" height="20" as="geometry"/>
                </mxCell>
                <mxCell id="dclassnode_class_node_separator_line_0" value="" style="line;strokeWidth=1;fillColor=none;align=left;verticalAlign=middle;spacingTop=-1;spacingLeft=3;spacingRight=3;rotatable=0;labelPosition=right;points=[];portConstraint=eastwest;" parent="dclassnode_class_node" vertex="1">
                    <mxGeometry y="90" width="200" height="8" as="geometry"/>
                </mxCell>
                <mxCell id="dclassnode_class_node_function_render_class" value="render_class(cls)" style="text;strokeColor=none;fillColor=none;align=left;verticalAlign=middle;spacingLeft=4;spacingRight=4;overflow=hidden;rotatable=0;points=[[0,0.5],[1,0.5]];portConstraint=eastwest;" parent="dclassnode_class_node" vertex="1">
                    <mxGeometry y="98" width="200" height="20" as="geometry"/>
                </mxCell>
                <mxCell id="dclassnode_class_node_function_predict_height_with_class" value="predict_height_with_class(cls)" style="text;strokeColor=none;fillColor=none;align=left;verticalAlign=middle;spacingLeft=4;spacingRight=4;overflow=hidden;rotatable=0;points=[[0,0.5],[1,0.5]];portConstraint=eastwest;" parent="dclassnode_class_node" vertex="1">
                    <mxGeometry y="118" width="200" height="20" as="geometry"/>
                </mxCell>
                <mxCell id="dclassnode_class_node_function_get_separator_line" value="get_separator_line(index)" style="text;strokeColor=none;fillColor=none;align=left;verticalAlign=middle;spacingLeft=4;spacingRight=4;overflow=hidden;rotatable=0;points=[[0,0.5],[1,0.5]];portConstraint=eastwest;" parent="dclassnode_class_node" vertex="1">
                    <mxGeometry y="138" width="200" height="20" as="geometry"/>
                </mxCell>
                <mxCell id="dclassnode_class_node_function_get_class_fields_and_methods" value="get_class_fields_and_methods(cls)" style="text;strokeColor=none;fillColor=none;align=left;verticalAlign=middle;spacingLeft=4;spacingRight=4;overflow=hidden;rotatable=0;points=[[0,0.5],[1,0.5]];portConstraint=eastwest;" parent="dclassnode_class_node" vertex="1">
                    <mxGeometry y="158" width="200" height="20" as="geometry"/>
                </mxCell>
                <mxCell id="dclassnode_class_node_function_get_children_in_section" value="get_children_in_section(section)" style="text;strokeColor=none;fillColor=none;align=left;verticalAlign=middle;spacingLeft=4;spacingRight=4;overflow=hidden;rotatable=0;points=[[0,0.5],[1,0.5]];portConstraint=eastwest;" parent="dclassnode_class_node" vertex="1">
                    <mxGeometry y="178" width="200" height="20" as="geometry"/>
                </mxCell>
                <mxCell id="dclassnode_class_node_function_get_all_separator_lines" value="get_all_separator_lines()" style="text;strokeColor=none;fillColor=none;align=left;verticalAlign=middle;spacingLeft=4;spacingRight=4;overflow=hidden;rotatable=0;points=[[0,0.5],[1,0.5]];portConstraint=eastwest;" parent="dclassnode_class_node" vertex="1">
                    <mxGeometry y="198" width="200" height="20" as="geometry"/>
                </mxCell>
                <mxCell id="dclassnode_class_node_function_fill_section" value="fill_section(section, row_generator)" style="text;strokeColor=none;fillColor=none;align=left;verticalAlign=middle;spacingLeft=4;spacingRight=4;overflow=hidden;rotatable=0;points=[[0,0.5],[1,0.5]];portConstraint=eastwest;" parent="dclassnode_class_node" vertex="1">
                    <mxGeometry y="218" width="200" height="20" as="geometry"/>
                </mxCell>
                <mxCell id="dclassnode_class_node_function_arrange_children" value="arrange_children()" style="text;strokeColor=none;fillColor=none;align=left;verticalAlign=middle;spacingLeft=4;spacingRight=4;overflow=hidden;rotatable=0;points=[[0,0.5],[1,0.5]];portConstraint=eastwest;" parent="dclassnode_class_node" vertex="1">
                    <mxGeometry y="238" width="200" height="20" as="geometry"/>
                </mxCell>
                <mxCell id="dobject_class_node" value="DObject" style="swimlane;fontStyle=1;align=center;verticalAlign=middle;childLayout=stackLayout;horizontal=1;startSize=30.0;horizontalStack=0;resizeParent=1;resizeLast=0;collapsible=1;marginBottom=0;rounded=0;shadow=0;strokeWidth=1;fontFamily=Courier New;fillColor=none;" parent="1" vertex="1">
                    <mxGeometry x="560" y="336" width="200" height="278" as="geometry"/>
                </mxCell>
                <mxCell id="dobject_class_node_property_y" value="y" style="text;strokeColor=none;fillColor=none;align=left;verticalAlign=middle;spacingLeft=4;spacingRight=4;overflow=hidden;rotatable=0;points=[[0,0.5],[1,0.5]];portConstraint=eastwest;" parent="dobject_class_node" vertex="1">
                    <mxGeometry y="30" width="200" height="20" as="geometry"/>
                </mxCell>
                <mxCell id="dobject_class_node_property_x" value="x" style="text;strokeColor=none;fillColor=none;align=left;verticalAlign=middle;spacingLeft=4;spacingRight=4;overflow=hidden;rotatable=0;points=[[0,0.5],[1,0.5]];portConstraint=eastwest;" parent="dobject_class_node" vertex="1">
                    <mxGeometry y="50" width="200" height="20" as="geometry"/>
                </mxCell>
                <mxCell id="dobject_class_node_property_width" value="width" style="text;strokeColor=none;fillColor=none;align=left;verticalAlign=middle;spacingLeft=4;spacingRight=4;overflow=hidden;rotatable=0;points=[[0,0.5],[1,0.5]];portConstraint=eastwest;" parent="dobject_class_node" vertex="1">
                    <mxGeometry y="70" width="200" height="20" as="geometry"/>
                </mxCell>
                <mxCell id="dobject_class_node_property_vertex" value="vertex" style="text;strokeColor=none;fillColor=none;align=left;verticalAlign=middle;spacingLeft=4;spacingRight=4;overflow=hidden;rotatable=0;points=[[0,0.5],[1,0.5]];portConstraint=eastwest;" parent="dobject_class_node" vertex="1">
                    <mxGeometry y="90" width="200" height="20" as="geometry"/>
                </mxCell>
                <mxCell id="dobject_class_node_property_value" value="value" style="text;strokeColor=none;fillColor=none;align=left;verticalAlign=middle;spacingLeft=4;spacingRight=4;overflow=hidden;rotatable=0;points=[[0,0.5],[1,0.5]];portConstraint=eastwest;" parent="dobject_class_node" vertex="1">
                    <mxGeometry y="110" width="200" height="20" as="geometry"/>
                </mxCell>
                <mxCell id="dobject_class_node_property_style" value="style" style="text;strokeColor=none;fillColor=none;align=left;verticalAlign=middle;spacingLeft=4;spacingRight=4;overflow=hidden;rotatable=0;points=[[0,0.5],[1,0.5]];portConstraint=eastwest;" parent="dobject_class_node" vertex="1">
                    <mxGeometry y="130" width="200" height="20" as="geometry"/>
                </mxCell>
                <mxCell id="dobject_class_node_property_parent" value="parent" style="text;strokeColor=none;fillColor=none;align=left;verticalAlign=middle;spacingLeft=4;spacingRight=4;overflow=hidden;rotatable=0;points=[[0,0.5],[1,0.5]];portConstraint=eastwest;" parent="dobject_class_node" vertex="1">
                    <mxGeometry y="150" width="200" height="20" as="geometry"/>
                </mxCell>
                <mxCell id="dobject_class_node_property_id" value="id" style="text;strokeColor=none;fillColor=none;align=left;verticalAlign=middle;spacingLeft=4;spacingRight=4;overflow=hidden;rotatable=0;points=[[0,0.5],[1,0.5]];portConstraint=eastwest;" parent="dobject_class_node" vertex="1">
                    <mxGeometry y="170" width="200" height="20" as="geometry"/>
                </mxCell>
                <mxCell id="dobject_class_node_property_height" value="height" style="text;strokeColor=none;fillColor=none;align=left;verticalAlign=middle;spacingLeft=4;spacingRight=4;overflow=hidden;rotatable=0;points=[[0,0.5],[1,0.5]];portConstraint=eastwest;" parent="dobject_class_node" vertex="1">
                    <mxGeometry y="190" width="200" height="20" as="geometry"/>
                </mxCell>
                <mxCell id="dobject_class_node_property_geometry_el" value="geometry_el" style="text;strokeColor=none;fillColor=none;align=left;verticalAlign=middle;spacingLeft=4;spacingRight=4;overflow=hidden;rotatable=0;points=[[0,0.5],[1,0.5]];portConstraint=eastwest;" parent="dobject_class_node" vertex="1">
                    <mxGeometry y="210" width="200" height="20" as="geometry"/>
                </mxCell>
                <mxCell id="dobject_class_node_separator_line_0" value="" style="line;strokeWidth=1;fillColor=none;align=left;verticalAlign=middle;spacingTop=-1;spacingLeft=3;spacingRight=3;rotatable=0;labelPosition=right;points=[];portConstraint=eastwest;" parent="dobject_class_node" vertex="1">
                    <mxGeometry y="230" width="200" height="8" as="geometry"/>
                </mxCell>
                <mxCell id="dobject_class_node_function_get_child_objects" value="get_child_objects()" style="text;strokeColor=none;fillColor=none;align=left;verticalAlign=middle;spacingLeft=4;spacingRight=4;overflow=hidden;rotatable=0;points=[[0,0.5],[1,0.5]];portConstraint=eastwest;" parent="dobject_class_node" vertex="1">
                    <mxGeometry y="238" width="200" height="20" as="geometry"/>
                </mxCell>
                <mxCell id="dobject_class_node_function_compute_height" value="compute_height()" style="text;strokeColor=none;fillColor=none;align=left;verticalAlign=middle;spacingLeft=4;spacingRight=4;overflow=hidden;rotatable=0;points=[[0,0.5],[1,0.5]];portConstraint=eastwest;" parent="dobject_class_node" vertex="1">
                    <mxGeometry y="258" width="200" height="20" as="geometry"/>
                </mxCell>
                <mxCell id="diagramelement_class_node" value="DiagramElement" style="swimlane;fontStyle=1;align=center;verticalAlign=middle;childLayout=stackLayout;horizontal=1;startSize=30.0;horizontalStack=0;resizeParent=1;resizeLast=0;collapsible=1;marginBottom=0;rounded=0;shadow=0;strokeWidth=1;fontFamily=Courier New;fillColor=none;" parent="1" vertex="1">
                    <mxGeometry x="560" y="634" width="200" height="158" as="geometry"/>
                </mxCell>
                <mxCell id="diagramelement_class_node_property_root_el" value="root_el" style="text;strokeColor=none;fillColor=none;align=left;verticalAlign=middle;spacingLeft=4;spacingRight=4;overflow=hidden;rotatable=0;points=[[0,0.5],[1,0.5]];portConstraint=eastwest;" parent="diagramelement_class_node" vertex="1">
                    <mxGeometry y="30" width="200" height="20" as="geometry"/>
                </mxCell>
                <mxCell id="diagramelement_class_node_property_objects" value="objects" style="text;strokeColor=none;fillColor=none;align=left;verticalAlign=middle;spacingLeft=4;spacingRight=4;overflow=hidden;rotatable=0;points=[[0,0.5],[1,0.5]];portConstraint=eastwest;" parent="diagramelement_class_node" vertex="1">
                    <mxGeometry y="50" width="200" height="20" as="geometry"/>
                </mxCell>
                <mxCell id="diagramelement_class_node_property_main_container" value="main_container" style="text;strokeColor=none;fillColor=none;align=left;verticalAlign=middle;spacingLeft=4;spacingRight=4;overflow=hidden;rotatable=0;points=[[0,0.5],[1,0.5]];portConstraint=eastwest;" parent="diagramelement_class_node" vertex="1">
                    <mxGeometry y="70" width="200" height="20" as="geometry"/>
                </mxCell>
                <mxCell id="diagramelement_class_node_property_classes_objects" value="classes_objects" style="text;strokeColor=none;fillColor=none;align=left;verticalAlign=middle;spacingLeft=4;spacingRight=4;overflow=hidden;rotatable=0;points=[[0,0.5],[1,0.5]];portConstraint=eastwest;" parent="diagramelement_class_node" vertex="1">
                    <mxGeometry y="90" width="200" height="20" as="geometry"/>
                </mxCell>
                <mxCell id="diagramelement_class_node_separator_line_0" value="" style="line;strokeWidth=1;fillColor=none;align=left;verticalAlign=middle;spacingTop=-1;spacingLeft=3;spacingRight=3;rotatable=0;labelPosition=right;points=[];portConstraint=eastwest;" parent="diagramelement_class_node" vertex="1">
                    <mxGeometry y="110" width="200" height="8" as="geometry"/>
                </mxCell>
                <mxCell id="diagramelement_class_node_function_render_classes" value="render_classes(classes)" style="text;strokeColor=none;fillColor=none;align=left;verticalAlign=middle;spacingLeft=4;spacingRight=4;overflow=hidden;rotatable=0;points=[[0,0.5],[1,0.5]];portConstraint=eastwest;" parent="diagramelement_class_node" vertex="1">
                    <mxGeometry y="118" width="200" height="20" as="geometry"/>
                </mxCell>
                <mxCell id="diagramelement_class_node_function_find_class_objects" value="find_class_objects(cls)" style="text;strokeColor=none;fillColor=none;align=left;verticalAlign=middle;spacingLeft=4;spacingRight=4;overflow=hidden;rotatable=0;points=[[0,0.5],[1,0.5]];portConstraint=eastwest;" parent="diagramelement_class_node" vertex="1">
                    <mxGeometry y="138" width="200" height="20" as="geometry"/>
                </mxCell>
                <mxCell id="diagramrenderer_class_node" value="DiagramRenderer" style="swimlane;fontStyle=1;align=center;verticalAlign=middle;childLayout=stackLayout;horizontal=1;startSize=30.0;horizontalStack=0;resizeParent=1;resizeLast=0;collapsible=1;marginBottom=0;rounded=0;shadow=0;strokeWidth=1;fontFamily=Courier New;fillColor=none;" parent="1" vertex="1">
                    <mxGeometry x="560" y="812" width="200" height="58" as="geometry"/>
                </mxCell>
                <mxCell id="diagramrenderer_class_node_separator_line_0" value="" style="line;strokeWidth=1;fillColor=none;align=left;verticalAlign=middle;spacingTop=-1;spacingLeft=3;spacingRight=3;rotatable=0;labelPosition=right;points=[];portConstraint=eastwest;" parent="diagramrenderer_class_node" vertex="1">
                    <mxGeometry y="30" width="200" height="8" as="geometry"/>
                </mxCell>
                <mxCell id="diagramrenderer_class_node_function_render_members" value="render_members(members)" style="text;strokeColor=none;fillColor=none;align=left;verticalAlign=middle;spacingLeft=4;spacingRight=4;overflow=hidden;rotatable=0;points=[[0,0.5],[1,0.5]];portConstraint=eastwest;" parent="diagramrenderer_class_node" vertex="1">
                    <mxGeometry y="38" width="200" height="20" as="geometry"/>
                </mxCell>
                <mxCell id="xmldiagramlookup_class_node" value="XMLDiagramLookup" style="swimlane;fontStyle=1;align=center;verticalAlign=middle;childLayout=stackLayout;horizontal=1;startSize=30.0;horizontalStack=0;resizeParent=1;resizeLast=0;collapsible=1;marginBottom=0;rounded=0;shadow=0;strokeWidth=1;fontFamily=Courier New;fillColor=none;" parent="1" vertex="1">
                    <mxGeometry x="560" y="890" width="200" height="38" as="geometry"/>
                </mxCell>
                <mxCell id="xmldiagramlookup_class_node_separator_line_0" value="" style="line;strokeWidth=1;fillColor=none;align=left;verticalAlign=middle;spacingTop=-1;spacingLeft=3;spacingRight=3;rotatable=0;labelPosition=right;points=[];portConstraint=eastwest;" parent="xmldiagramlookup_class_node" vertex="1">
                    <mxGeometry y="30" width="200" height="8" as="geometry"/>
                </mxCell>
                <mxCell id="parser_module_class_node" value="parser_module" style="swimlane;fontStyle=1;align=center;verticalAlign=middle;childLayout=stackLayout;horizontal=1;startSize=30.0;horizontalStack=0;resizeParent=1;resizeLast=0;collapsible=1;marginBottom=0;rounded=0;shadow=0;strokeWidth=1;fontFamily=Courier New;fillColor=none;" parent="1" vertex="1">
                    <mxGeometry x="560" y="948" width="200" height="58" as="geometry"/>
                </mxCell>
                <mxCell id="parser_module_class_node_separator_line_0" value="" style="line;strokeWidth=1;fillColor=none;align=left;verticalAlign=middle;spacingTop=-1;spacingLeft=3;spacingRight=3;rotatable=0;labelPosition=right;points=[];portConstraint=eastwest;" parent="parser_module_class_node" vertex="1">
                    <mxGeometry y="30" width="200" height="8" as="geometry"/>
                </mxCell>
                <mxCell id="parser_module_class_node_function_main" value="main()" style="text;strokeColor=none;fillColor=none;align=left;verticalAlign=middle;spacingLeft=4;spacingRight=4;overflow=hidden;rotatable=0;points=[[0,0.5],[1,0.5]];portConstraint=eastwest;" parent="parser_module_class_node" vertex="1">
                    <mxGeometry y="38" width="200" height="20" as="geometry"/>
                </mxCell>
            </root>
        </mxGraphModel>
    </diagram>
</mxfile>